<svg aria-hidden="true" style="position: absolute; width: 0; height: 0; overflow: hidden;" version="1.1" xmlns="http://www.w3.org/2000/svg" xmlns:xlink="http://www.w3.org/1999/xlink">
<defs>
<symbol id="icon-web-programming" viewBox="0 0 32 32">
<path fill="#4985ff" style="fill: var(--color1, #4985ff)" d="M12.626 22.425c-0.121 0-0.243-0.042-0.342-0.126l-3.419-2.911c-0.118-0.1-0.186-0.247-0.186-0.402s0.068-0.302 0.186-0.402l3.419-2.911c0.222-0.189 0.555-0.162 0.745 0.060s0.162 0.556-0.060 0.745l-2.946 2.509 2.946 2.509c0.222 0.189 0.249 0.523 0.060 0.745-0.105 0.123-0.253 0.186-0.403 0.186z"></path>
<path fill="#4985ff" style="fill: var(--color1, #4985ff)" d="M19.374 22.425c-0.149 0-0.298-0.063-0.402-0.186-0.189-0.222-0.162-0.555 0.060-0.745l2.946-2.509-2.946-2.509c-0.222-0.189-0.249-0.522-0.060-0.745s0.523-0.249 0.744-0.060l3.419 2.911c0.118 0.1 0.186 0.247 0.186 0.402s-0.068 0.302-0.186 0.402l-3.419 2.911c-0.099 0.085-0.221 0.126-0.342 0.126z"></path>
<path fill="#4985ff" style="fill: var(--color1, #4985ff)" d="M14.79 24.609c-0.036 0-0.073-0.004-0.11-0.012-0.285-0.060-0.468-0.34-0.408-0.626l2.131-10.116c0.060-0.285 0.34-0.468 0.626-0.408s0.468 0.34 0.408 0.626l-2.131 10.116c-0.052 0.249-0.272 0.42-0.516 0.42z"></path>
<path fill="#4985ff" style="fill: var(--color1, #4985ff)" d="M28.453 30.12h-24.906c-1.956 0-3.547-1.591-3.547-3.547v-21.139c0-1.956 1.591-3.547 3.547-3.547h24.906c1.956 0 3.547 1.591 3.547 3.547v21.139c0 1.956-1.591 3.547-3.547 3.547zM3.547 2.944c-1.373 0-2.491 1.117-2.491 2.491v21.139c0 1.373 1.117 2.491 2.491 2.491h24.906c1.373 0 2.491-1.117 2.491-2.491v-21.139c0-1.373-1.117-2.491-2.491-2.491h-24.906z"></path>
<path fill="#4985ff" style="fill: var(--color1, #4985ff)" d="M31.472 10.346h-30.943c-0.292 0-0.528-0.236-0.528-0.528s0.236-0.528 0.528-0.528h30.943c0.292 0 0.528 0.237 0.528 0.528s-0.236 0.528-0.528 0.528z"></path>
<path fill="#4985ff" style="fill: var(--color1, #4985ff)" d="M9.026 7.818c-0.922 0-1.672-0.75-1.672-1.672s0.75-1.672 1.672-1.672c0.922 0 1.672 0.75 1.672 1.672s-0.75 1.672-1.672 1.672zM9.026 5.531c-0.339 0-0.615 0.276-0.615 0.615s0.276 0.615 0.615 0.615c0.339 0 0.615-0.276 0.615-0.615s-0.276-0.615-0.615-0.615z"></path>
<path fill="#4985ff" style="fill: var(--color1, #4985ff)" d="M3.891 7.802c-0.922 0-1.672-0.75-1.672-1.672s0.75-1.672 1.672-1.672c0.922 0 1.672 0.75 1.672 1.672s-0.75 1.672-1.672 1.672zM3.891 5.515c-0.339 0-0.615 0.276-0.615 0.615s0.276 0.615 0.615 0.615c0.339 0 0.615-0.276 0.615-0.615s-0.276-0.615-0.615-0.615z"></path>
<path fill="#4985ff" style="fill: var(--color1, #4985ff)" d="M14.163 7.834c-0.921 0-1.672-0.75-1.672-1.672s0.75-1.672 1.672-1.672c0.922 0 1.672 0.75 1.672 1.672s-0.75 1.672-1.672 1.672zM14.163 5.547c-0.339 0-0.615 0.276-0.615 0.615s0.276 0.615 0.615 0.615c0.339 0 0.615-0.276 0.615-0.615s-0.276-0.615-0.615-0.615z"></path>
</symbol>
<symbol id="icon-location" viewBox="0 0 32 32">
<path fill="#999" style="fill: var(--color2, #999)" d="M15.978 0c-6.467 0-11.728 5.261-11.728 11.728 0 2.971 1.872 7.168 5.564 12.475 2.698 3.88 5.353 6.882 5.464 7.008l0.7 0.789 0.7-0.789c0.112-0.126 2.766-3.128 5.464-7.008 3.692-5.307 5.564-9.505 5.564-12.475 0-6.467-5.261-11.728-11.728-11.728zM20.616 23.12c-1.824 2.624-3.667 4.882-4.639 6.035-0.969-1.149-2.805-3.399-4.628-6.019-3.421-4.917-5.229-8.862-5.229-11.407 0-5.435 4.422-9.857 9.857-9.857s9.857 4.422 9.857 9.857c0 2.542-1.804 6.481-5.218 11.392z"></path>
<path fill="#999" style="fill: var(--color2, #999)" d="M15.976 4.334c-3.817 0-6.922 3.105-6.922 6.922s3.105 6.922 6.922 6.922c3.817 0 6.922-3.105 6.922-6.922s-3.105-6.922-6.922-6.922zM15.976 16.307c-2.785 0-5.051-2.266-5.051-5.051s2.266-5.051 5.051-5.051c2.785 0 5.051 2.266 5.051 5.051s-2.266 5.051-5.051 5.051z"></path>
</symbol>
<symbol id="icon-play-button" viewBox="0 0 32 32">
<path fill="#4985ff" style="fill: var(--color1, #4985ff)" d="M32 16c0 8.837-7.163 16-16 16s-16-7.163-16-16c0-8.837 7.163-16 16-16s16 7.163 16 16z"></path>
<path fill="#fff" style="fill: var(--color3, #fff)" d="M16 0c-8.836 0-16 7.163-16 16s7.164 16 16 16c8.836 0 16-7.163 16-16s-7.164-16-16-16zM21.53 16.848l-8 5c-0.162 0.101-0.346 0.152-0.53 0.152-0.167 0-0.334-0.041-0.485-0.125-0.318-0.176-0.515-0.511-0.515-0.875v-10c0-0.364 0.197-0.698 0.515-0.874s0.707-0.166 1.015 0.026l8 5c0.292 0.183 0.47 0.503 0.47 0.848s-0.178 0.665-0.47 0.848z"></path>
</symbol>
<symbol id="icon-right-arrow" viewBox="0 0 32 32">
<path fill="#999" style="fill: var(--color2, #999)" d="M10.024 30.090c-0.198 0.198-0.447 0.298-0.719 0.298s-0.521-0.099-0.719-0.298c-0.397-0.397-0.397-1.042 0-1.439l12.651-12.651-12.651-12.651c-0.397-0.397-0.397-1.042 0-1.439s1.042-0.397 1.439 0l13.371 13.371c0.397 0.397 0.397 1.042 0 1.439l-13.371 13.371z"></path>
</symbol>
<symbol id="icon-phone" viewBox="0 0 32 32">
<path fill="#999" style="fill: var(--color2, #999)" d="M31.16 24.687l-6.477-4.319c-0.822-0.544-1.924-0.365-2.531 0.411l-1.887 2.426c-0.242 0.32-0.683 0.412-1.034 0.218l-0.359-0.198c-1.19-0.648-2.67-1.456-5.652-4.439s-3.791-4.465-4.44-5.652l-0.197-0.359c-0.198-0.351-0.107-0.793 0.213-1.038l2.424-1.886c0.776-0.608 0.955-1.709 0.412-2.531l-4.319-6.477c-0.557-0.837-1.673-1.089-2.535-0.571l-2.708 1.627c-0.851 0.5-1.475 1.311-1.742 2.261-0.975 3.554-0.242 9.687 8.793 18.722 7.187 7.186 12.537 9.118 16.214 9.118 0.846 0.004 1.689-0.106 2.506-0.327 0.951-0.266 1.761-0.891 2.261-1.742l1.629-2.707c0.519-0.862 0.268-1.979-0.57-2.536zM30.812 26.676l-1.625 2.708c-0.359 0.614-0.942 1.066-1.626 1.261-3.281 0.901-9.012 0.155-17.685-8.519s-9.419-14.404-8.519-17.685c0.195-0.685 0.647-1.269 1.262-1.629l2.708-1.625c0.374-0.225 0.859-0.116 1.1 0.247l4.316 6.476c0.236 0.357 0.158 0.835-0.178 1.099l-2.425 1.886c-0.738 0.564-0.949 1.585-0.494 2.395l0.193 0.35c0.682 1.25 1.529 2.805 4.622 5.898s4.648 3.94 5.897 4.622l0.35 0.193c0.81 0.454 1.831 0.243 2.395-0.494l1.886-2.425c0.264-0.336 0.742-0.414 1.099-0.178l6.476 4.319c0.364 0.241 0.473 0.726 0.247 1.1z"></path>
<path fill="#999" style="fill: var(--color2, #999)" d="M18.133 5.336c5.004 0.006 9.060 4.061 9.065 9.065 0 0.295 0.239 0.533 0.533 0.533s0.533-0.239 0.533-0.533c-0.006-5.593-4.539-10.126-10.132-10.132-0.294 0-0.533 0.239-0.533 0.533s0.239 0.533 0.533 0.533z"></path>
<path fill="#999" style="fill: var(--color2, #999)" d="M18.133 8.536c3.238 0.004 5.862 2.628 5.866 5.866 0 0.294 0.239 0.533 0.533 0.533s0.533-0.239 0.533-0.533c-0.004-3.827-3.106-6.928-6.932-6.932-0.294 0-0.533 0.239-0.533 0.533s0.239 0.533 0.533 0.533z"></path>
<path fill="#999" style="fill: var(--color2, #999)" d="M18.133 11.736c1.472 0.002 2.665 1.194 2.666 2.666 0 0.295 0.239 0.533 0.533 0.533s0.533-0.239 0.533-0.533c-0.002-2.061-1.672-3.73-3.733-3.733-0.294 0-0.533 0.239-0.533 0.533s0.239 0.533 0.533 0.533z"></path>
</symbol>
<symbol id="icon-email" viewBox="0 0 37 32">
<path fill="#999" style="fill: var(--color2, #999)" d="M32.416 1.95h-27.9c-2.491 0-4.515 2.025-4.515 4.515v19.069c0 2.491 2.025 4.515 4.515 4.515h27.893c2.491 0 4.515-2.025 4.515-4.515v-19.061c0.008-2.491-2.017-4.523-4.508-4.523zM34.868 25.534c0 1.352-1.1 2.452-2.452 2.452h-27.9c-1.352 0-2.452-1.1-2.452-2.452v-19.061c0-1.352 1.1-2.452 2.452-2.452h27.893c1.352 0 2.452 1.1 2.452 2.452v19.061h0.008z"></path>
<path fill="#999" style="fill: var(--color2, #999)" d="M23.286 15.763l9.030-8.098c0.42-0.382 0.458-1.031 0.076-1.459-0.382-0.42-1.031-0.458-1.459-0.076l-12.453 11.177-2.429-2.17c-0.008-0.008-0.015-0.015-0.015-0.023-0.053-0.053-0.107-0.099-0.168-0.145l-9.886-8.847c-0.428-0.382-1.077-0.344-1.459 0.084s-0.344 1.077 0.084 1.459l9.137 8.167-9.099 8.518c-0.413 0.39-0.435 1.039-0.046 1.459 0.206 0.214 0.481 0.329 0.756 0.329 0.252 0 0.504-0.092 0.703-0.275l9.236-8.64 2.506 2.238c0.199 0.176 0.443 0.26 0.688 0.26s0.497-0.092 0.688-0.267l2.575-2.307 9.183 8.725c0.199 0.191 0.459 0.283 0.711 0.283 0.275 0 0.542-0.107 0.749-0.321 0.39-0.413 0.374-1.070-0.038-1.459l-9.068-8.61z"></path>
</symbol>
<symbol id="icon-app" viewBox="0 0 32 32">
<path fill="none" stroke="#4985ff" style="stroke: var(--color1, #4985ff)" stroke-linejoin="miter" stroke-linecap="butt" stroke-miterlimit="4" stroke-width="0.3556" d="M31.822 16c0 8.738-7.084 15.822-15.822 15.822s-15.822-7.084-15.822-15.822c0-8.738 7.084-15.822 15.822-15.822s15.822 7.084 15.822 15.822z"></path>
<path fill="#4985ff" style="fill: var(--color1, #4985ff)" d="M22.874 8.889h-10.667c-0.131 0-0.237 0.106-0.237 0.237v3.556h0.474v-3.319h10.193v13.037c0.002 0.125-0.094 0.229-0.218 0.237-0.020 0-0.041-0.002-0.061-0.002-0.042-0.001-0.084-0.002-0.125-0.006-0.004 0-0.007 0-0.010-0.001-0.774-0.085-1.386-0.696-1.471-1.47 0-0.003-0.001-0.007-0.002-0.010-0.006-0.056-0.009-0.113-0.009-0.169v-0.474c0-0.131-0.106-0.237-0.237-0.237h-8.059v-4.267h-0.474v4.267h-1.896c-0.131 0-0.237 0.106-0.237 0.237v0.474c0.001 1.178 0.956 2.132 2.133 2.133h10.453c0.385-0.010 0.69-0.326 0.687-0.711v-13.274c0-0.131-0.106-0.237-0.237-0.237zM11.97 22.637c-0.916-0.001-1.658-0.743-1.659-1.659v-0.237h9.956v0.237c0 0.078 0.005 0.156 0.014 0.234 0.002 0.021 0.006 0.041 0.009 0.061 0.008 0.057 0.017 0.114 0.030 0.171 0.004 0.020 0.010 0.039 0.015 0.059 0.014 0.057 0.031 0.113 0.050 0.169 0.005 0.016 0.011 0.032 0.017 0.047 0.022 0.059 0.046 0.116 0.073 0.173 0.006 0.012 0.011 0.024 0.017 0.034 0.030 0.060 0.062 0.118 0.098 0.175 0.005 0.008 0.009 0.015 0.014 0.024 0.039 0.061 0.080 0.119 0.125 0.175l0.008 0.010c0.052 0.065 0.107 0.127 0.166 0.186 0.051 0.051 0.104 0.098 0.159 0.142l-9.088-0.001z"></path>
<path fill="#4985ff" style="fill: var(--color1, #4985ff)" d="M16.711 15.526c0.063 0 0.123-0.025 0.168-0.069l0.948-0.948c0.093-0.093 0.093-0.243 0-0.335l-0.948-0.948c-0.044-0.044-0.105-0.069-0.168-0.069h-6.637c-0.655 0-1.185 0.531-1.185 1.185s0.531 1.185 1.185 1.185h6.637zM16.65 13.667l0.674 0.674-0.674 0.674-0.169-0.674 0.169-0.674zM10.785 13.63h5.386l-0.119 0.474h-4.793v0.474h4.793l0.119 0.474h-5.386v-1.422zM9.363 14.341c0-0.393 0.318-0.711 0.711-0.711h0.237v1.422h-0.237c-0.393 0-0.711-0.318-0.711-0.711z"></path>
<path fill="#4985ff" style="fill: var(--color1, #4985ff)" d="M14.34 19.081h7.111c0.131 0 0.237-0.106 0.237-0.237v-7.111c-0-0.131-0.106-0.237-0.237-0.237-0.063 0-0.123 0.025-0.168 0.069l-7.111 7.111c-0.093 0.093-0.092 0.243 0 0.335 0.044 0.044 0.105 0.069 0.168 0.069zM21.215 12.306v0.613h-0.474v0.474h0.474v0.474h-0.474v0.474h0.474v0.474h-0.474v0.474h0.474v0.474h-0.474v0.474h0.474v0.474h-0.474v0.474h0.474v0.474h-0.474v0.474h0.474v0.474h-0.474v-0.474h-0.474v0.474h-0.474v-0.474h-0.474v0.474h-0.474v-0.474h-0.474v0.474h-0.474v-0.474h-0.474v0.474h-0.474v-0.474h-0.474v0.474h-0.474v-0.474h-0.474v0.474h-0.613l6.302-6.302z"></path>
<path fill="#4985ff" style="fill: var(--color1, #4985ff)" d="M17.774 17.659h2.255c0.131 0 0.237-0.106 0.237-0.237v-2.255c0-0.131-0.106-0.237-0.237-0.237-0.063 0-0.123 0.025-0.168 0.069l-2.255 2.255c-0.093 0.093-0.093 0.243 0 0.335 0.044 0.044 0.105 0.069 0.168 0.069zM19.793 15.739v1.446h-1.446l1.446-1.446z"></path>
<path fill="#4985ff" style="fill: var(--color1, #4985ff)" d="M19.793 10.311h-4.741v0.474h4.741v-0.474z"></path>
<path fill="#4985ff" style="fill: var(--color1, #4985ff)" d="M20.504 11.259h-6.163v0.474h6.163v-0.474z"></path>
<path fill="#4985ff" style="fill: var(--color1, #4985ff)" d="M14.341 16.237h-1.422v0.474h1.422v-0.474z"></path>
<path fill="#4985ff" style="fill: var(--color1, #4985ff)" d="M13.867 17.185h-0.948v0.474h0.948v-0.474z"></path>
</symbol>
<symbol id="icon-mobile-menu" viewBox="0 0 20 20">
<path d="M16.4 9h-12.8c-0.552 0-0.6 0.447-0.6 1s0.048 1 0.6 1h12.8c0.552 0 0.6-0.447 0.6-1s-0.048-1-0.6-1zM16.4 13h-12.8c-0.552 0-0.6 0.447-0.6 1s0.048 1 0.6 1h12.8c0.552 0 0.6-0.447 0.6-1s-0.048-1-0.6-1zM3.6 7h12.8c0.552 0 0.6-0.447 0.6-1s-0.048-1-0.6-1h-12.8c-0.552 0-0.6 0.447-0.6 1s0.048 1 0.6 1z"></path>
</symbol>
<symbol id="icon-minus" viewBox="0 0 20 20">
<path d="M16 10c0 0.553-0.048 1-0.601 1h-10.798c-0.552 0-0.601-0.447-0.601-1s0.049-1 0.601-1h10.799c0.552 0 0.6 0.447 0.6 1z"></path>
</symbol>
</defs>
</svg>
